HIERARCHY
ROOT Hips
{
	OFFSET 0.000000 0.000000 0.000000 
	CHANNELS 6 Xposition Yposition Zposition Zrotation Yrotation Xrotation
	JOINT LeftUpLeg
	{
		OFFSET 1.363060 -1.794630 0.839290 
		CHANNELS 3 Zrotation Yrotation Xrotation
		JOINT LeftLeg
		{
			OFFSET 2.448110 -6.726130 0.000000 
			CHANNELS 3 Zrotation Yrotation Xrotation
			JOINT LeftFoot
			{
				OFFSET 2.562200 -7.039590 0.000000 
				CHANNELS 3 Zrotation Yrotation Xrotation
				JOINT LeftToeBase
				{
					OFFSET 0.157640 -0.433110 2.322550 
					CHANNELS 3 Zrotation Yrotation Xrotation
					End Site
					{
						OFFSET 0.000000 0.000000 0.000000 
					}
				}
			}
		}
	}
	JOINT RightUpLeg
	{
		OFFSET -1.305520 -1.794630 0.839290 
		CHANNELS 3 Zrotation Yrotation Xrotation
		JOINT RightLeg
		{
			OFFSET -2.542530 -6.985550 0.000000 
			CHANNELS 3 Zrotation Yrotation Xrotation
			JOINT RightFoot
			{
				OFFSET -2.568260 -7.056230 0.000000 
				CHANNELS 3 Zrotation Yrotation Xrotation
				JOINT RightToeBase
				{
					OFFSET -0.164730 -0.452590 2.363150 
					CHANNELS 3 Zrotation Yrotation Xrotation
					End Site
					{
						OFFSET 0.000000 0.000000 0.000000 
					}
				}
			}
		}
	}
	JOINT Spine
	{
		OFFSET 0.028270 2.035590 -0.193380 
		CHANNELS 3 Zrotation Yrotation Xrotation
		JOINT Spine1
		{
			OFFSET 0.056720 2.048850 -0.042750 
			CHANNELS 3 Zrotation Yrotation Xrotation
			JOINT Neck1
			{
				OFFSET -0.054170 1.746240 0.172020 
				CHANNELS 3 Zrotation Yrotation Xrotation
				JOINT Head
				{
					OFFSET 0.104070 1.761360 -0.123970 
					CHANNELS 3 Zrotation Yrotation Xrotation
					End Site
					{
						OFFSET 0.000000 0.000000 0.000000 
					}
				}
			}
			JOINT LeftArm
			{
				OFFSET 3.362410 1.200890 -0.311210 
				CHANNELS 3 Zrotation Yrotation Xrotation
				JOINT LeftForeArm
				{
					OFFSET 4.983000 -0.000000 -0.000000 
					CHANNELS 3 Zrotation Yrotation Xrotation
					JOINT LeftHand
					{
						OFFSET 3.483560 -0.000000 -0.000000 
						CHANNELS 3 Zrotation Yrotation Xrotation
						JOINT LeftHandIndex1
						{
							OFFSET 0.715260 -0.000000 -0.000000 
							CHANNELS 3 Zrotation Yrotation Xrotation
							End Site
							{
								OFFSET 0.000000 0.000000 0.000000 
							}
						}
					}
				}
			}
			JOINT RightArm
			{
				OFFSET -3.136600 1.374050 -0.404650 
				CHANNELS 3 Zrotation Yrotation Xrotation
				JOINT RightForeArm
				{
					OFFSET -5.241900 -0.000000 -0.000000 
					CHANNELS 3 Zrotation Yrotation Xrotation
					JOINT RightHand
					{
						OFFSET -3.444170 -0.000000 -0.000000 
						CHANNELS 3 Zrotation Yrotation Xrotation
						JOINT RightHandIndex1
						{
							OFFSET -0.622530 -0.000000 -0.000000 
							CHANNELS 3 Zrotation Yrotation Xrotation
							End Site
							{
								OFFSET 0.000000 0.000000 0.000000 
							}
						}
					}
				}
			}
		}
	}
}
MOTION
Frames: 12
Frame Time: 0.041667
-3.756336 18.369970 19.382220 -4.039995 -73.032370 4.846600 -9.716853 -5.149712 -9.500071 -2.366693 7.041032 20.500921 1.009219 1.372720 12.878603 0.001500 -0.247500 -0.679900 6.137468 10.278118 -8.430713 -0.290886 -11.551191 34.395723 -7.023227 12.157055 20.489114 -0.111400 -2.152300 5.926700 0.852434 0.210301 -3.352350 10.202149 0.046466 -2.935343 -3.294359 21.350685 -1.386588 -0.656200 10.702800 0.960900 28.337724 6.047570 -60.910703 16.228308 -22.885625 -7.518249 -2.423418 7.018171 -23.386879 -7.125000 0.000000 0.000000 49.324178 -16.616319 40.495631 -39.042688 43.216317 -22.365020 0.292227 -1.743301 -7.415062 7.125000 0.000000 0.000000 
-3.779562 18.363929 19.382012 -4.215013 -72.421819 4.903863 -9.574611 -5.302827 -9.632394 -2.303013 7.224587 21.016399 1.284263 0.590678 13.187917 0.010500 0.662800 1.821500 6.371580 10.401459 -8.067344 -0.295106 -11.534052 34.364475 -7.005816 12.109262 20.016434 -0.155700 -2.542200 7.006700 0.924338 0.388923 -3.261259 10.315854 0.170287 -2.568998 -4.105369 21.114004 -1.816841 -0.758000 10.601100 0.876300 26.890801 7.615505 -61.981678 16.369622 -22.629885 -7.691539 -2.610409 7.062724 -23.806324 -7.125000 0.000000 0.000000 49.210911 -16.309642 40.014241 -38.967865 43.140588 -22.303805 0.396914 -1.749903 -8.389182 7.125000 0.000000 0.000000 
-3.800080 18.346536 19.377534 -4.100448 -71.648159 4.719246 -9.542801 -5.187536 -10.054988 -2.204517 7.500020 21.787044 1.684821 -0.608518 13.500588 0.045300 1.373300 3.776500 6.563388 10.163860 -7.877264 -0.355836 -11.527451 34.316953 -6.859762 11.481399 19.102109 -0.019800 -0.907900 2.495500 0.953304 0.581324 -3.203453 10.270979 0.303262 -2.274970 -4.401766 20.725145 -2.393614 -0.795600 10.415200 0.774600 25.385444 8.927510 -61.957614 16.673374 -22.619072 -8.038917 -2.843046 6.887163 -25.103259 -7.125000 0.000000 0.000000 49.430777 -15.893758 39.528870 -39.119368 43.178932 -22.412501 0.437445 -1.748829 -9.640948 7.125000 0.000000 0.000000 
-3.824868 18.343099 19.370451 -6.103194 -70.925676 6.541600 -8.885188 -5.046974 -10.595880 -2.040231 7.824007 22.612790 1.931707 -1.247666 13.914434 0.031700 1.148900 3.158600 7.276953 10.522268 -7.317995 -0.315298 -11.471699 34.215105 -6.820396 11.519701 18.459890 -0.056300 -1.531700 4.213000 1.066855 0.921060 -3.152521 9.746494 0.497472 -1.861486 -4.677726 20.276909 -3.145167 -0.859900 10.206400 0.588800 23.738117 9.971759 -60.925626 17.084100 -22.723837 -8.436076 -2.990992 6.669092 -26.235976 -7.125000 0.000000 0.000000 49.712981 -15.486581 39.133130 -39.667187 43.407186 -22.822723 0.472771 -1.726246 -10.664206 7.125000 0.000000 0.000000 
-3.843615 18.312166 19.364723 -8.890190 -69.975529 8.958635 -7.927985 -5.089368 -11.059732 -1.833558 8.203676 23.608322 2.275713 -2.170341 14.432095 0.012000 0.706600 1.941900 8.452566 9.917018 -7.041386 -0.382660 -11.459007 34.151407 -6.313307 10.038369 16.987488 -0.064900 1.643400 -4.521200 1.324052 1.202670 -3.105028 9.364913 0.634428 -1.478216 -4.593281 19.886415 -4.714603 -0.828500 10.045800 0.056200 21.824956 10.186854 -60.631433 17.221271 -22.490884 -8.603556 -3.001940 6.751297 -26.213363 -7.125000 0.000000 0.000000 49.490503 -14.736611 38.764495 -40.176890 43.605430 -23.251565 0.476427 -1.711407 -11.403120 7.125000 0.000000 0.000000 
-3.868612 18.284670 19.349204 -11.510062 -69.013933 10.960274 -6.963642 -5.294755 -11.287298 -1.547251 8.654480 24.785347 2.477782 -2.772849 13.978080 0.058100 -1.555700 -4.279300 9.653521 9.674890 -6.383904 -0.338488 -11.374242 34.021474 -6.155963 9.834916 16.299158 -0.071800 1.728300 -4.755200 1.708806 1.479957 -2.928712 9.030064 0.786439 -1.123463 -3.708123 19.645306 -5.565694 -0.507800 9.920700 -0.207700 19.624015 10.917930 -58.116419 17.662781 -22.588214 -9.048019 -3.123536 6.475773 -28.249420 -7.125000 0.000000 0.000000 49.051480 -13.447513 38.402927 -40.969100 43.894178 -23.900243 0.463378 -1.691450 -11.783964 7.125000 0.000000 0.000000 
-3.890484 18.267380 19.329311 -13.968792 -67.947526 12.788452 -5.974422 -5.273028 -11.652866 -1.218920 9.121026 25.986764 2.585172 -3.064004 13.481129 0.538000 -4.699700 -13.053900 10.879815 9.444180 -5.753105 -0.236589 -11.247210 33.847265 -6.177224 10.272348 16.239210 -0.000100 0.078000 -0.214400 2.014396 1.599792 -2.707154 8.274909 0.876446 -0.845057 -3.059244 19.398913 -5.948117 -0.322700 9.772100 -0.175000 17.526349 11.847107 -54.980771 18.389597 -23.103830 -9.713386 -3.177315 5.950865 -30.533392 -7.125000 0.000000 0.000000 48.611417 -11.594827 38.470483 -41.985957 44.236758 -24.661455 0.482782 -1.666537 -11.935515 7.125000 0.000000 0.000000 
-3.912564 18.254778 19.315355 -14.633834 -67.047824 13.197043 -5.535675 -5.192520 -12.171907 -1.043264 9.479336 27.008193 3.116597 -4.770266 14.446906 0.115400 -2.190200 -6.031700 11.475249 8.895653 -5.580909 -0.252078 -11.187661 33.695919 -5.842109 9.289824 15.594177 -0.151800 2.510700 -6.919400 2.041308 1.732545 -2.512750 7.486366 0.986571 -0.589211 -3.084454 19.046479 -5.051350 -0.291800 9.554700 0.355300 15.584652 12.622420 -52.202541 19.159534 -23.750225 -10.365505 -3.118449 5.436941 -32.387635 -7.125000 0.000000 0.000000 48.484852 -9.282945 38.188251 -43.167469 44.620229 -25.537648 0.487654 -1.615941 -12.598260 7.125000 0.000000 0.000000 
-3.928499 18.246967 19.301295 -14.991871 -66.265659 13.399456 -5.132664 -5.210324 -12.708426 -0.955455 9.753437 27.809054 3.612322 -6.467021 16.460799 0.140300 2.413700 6.650300 11.890129 8.702048 -5.391373 -0.214449 -11.109775 33.560397 -5.810174 9.279898 15.504136 -0.189700 2.804700 -7.735600 2.216817 2.222121 -2.516922 7.367443 1.235571 -0.407214 -2.159299 18.519285 -5.304563 -0.065900 9.266900 0.274800 13.510025 12.352458 -49.667966 19.526364 -23.942049 -10.744760 -2.996199 5.269156 -32.914600 -7.125000 0.000000 0.000000 47.481517 -7.300745 37.387977 -44.255053 44.918744 -26.434545 0.554020 -1.563473 -13.192007 7.125000 0.000000 0.000000 
-3.948496 18.239572 19.283589 -14.644688 -65.497406 12.914039 -5.010883 -5.070931 -13.253213 -0.837850 10.022446 28.532210 3.801524 -7.246109 17.433299 0.208500 2.940100 8.112100 12.040941 8.798783 -5.124770 -0.120996 -11.005430 33.442692 -6.075447 10.238726 16.158525 -0.001000 0.201800 -0.554600 2.545967 2.984275 -2.869023 7.408272 1.597946 -0.556390 -1.113986 17.358352 -6.718492 0.110800 8.678500 -0.387100 11.046723 11.476929 -46.319348 20.071777 -24.296591 -11.340411 -2.794831 5.042126 -33.062566 -7.125000 0.000000 0.000000 45.597129 -6.181638 36.153385 -45.302522 45.163155 -27.417171 0.639085 -1.511381 -14.263226 7.125000 0.000000 0.000000 
-3.956828 18.238947 19.271091 -13.933912 -64.680074 12.093120 -5.048767 -4.855486 -13.718472 -0.711453 10.284106 29.253058 3.943499 -7.955875 18.023798 0.098300 2.021700 5.565600 12.076508 8.541963 -4.985372 -0.099074 -10.943270 33.309187 -6.027361 10.067056 16.163485 -0.000100 0.072500 -0.199100 2.304978 2.891592 -2.420393 6.763430 1.572571 -0.109884 -0.588703 17.433973 -7.407370 0.152500 8.664400 -0.060500 9.222316 11.622550 -45.145447 20.691729 -24.817534 -11.776031 -2.528599 4.755753 -32.314426 -7.125000 0.000000 0.000000 44.573194 -2.194019 34.850872 -46.424884 45.347854 -28.301928 0.634015 -1.462567 -14.666279 7.125000 0.000000 0.000000 
-3.966827 18.238114 19.268695 -14.618705 -63.934894 12.507119 -4.588199 -4.625980 -14.092606 -0.580047 10.490707 29.812315 4.150059 -8.755691 18.412746 0.000200 0.094900 0.260700 12.601879 8.176710 -4.800874 -0.098881 -10.898043 33.247604 -5.894086 9.772255 15.933957 -0.013600 0.752800 -2.069000 1.954075 3.173517 -2.249768 5.823729 1.736781 -0.002809 -0.085584 16.895694 -8.157897 0.155400 8.351000 0.068100 7.980062 11.290589 -43.516770 20.616935 -24.750815 -11.732412 -2.492602 4.769833 -31.830567 -7.125000 0.000000 0.000000 43.315773 1.036925 33.128129 -47.354981 45.447794 -29.100025 0.677502 -1.415986 -15.981868 7.125000 0.000000 0.000000 
